# xmcd
# 
# Track frame offsets:
#     150
#     15276
#     30712
#     43990
#     56358
#     70280
#     82500
#     95009
#     109812
#     123045
#     137579
#     151269
#     162828
#     173493
#     188310
#     199987
#     213049
#     224814
#     237789
#     250226
#     262731
#     274325
#     287125
#     298389
#     312163
# 
# Disc length: 4339
# 
# Revision: 1
# Processed by: cddbd v1.5.2PL0 Copyright (c) Steve Scherf et al.
# Submitted via: fre:ac v1.0.17
# 
DISCID=5c10f119
DTITLE=Django Reinhardt - L'anthologie [CD 3)
DYEAR=2010
DGENRE=Jazz
TTITLE0=Porto Cabello
TTITLE1=Duke And Duke
TTITLE2=For Sentimental Reasons
TTITLE3=Blues Clair
TTITLE4=Topsy
TTITLE5=Old Man River
TTITLE6=Si Tu Savais
TTITLE7=Diminshing
TTITLE8=Confessin'
TTITLE9=Clouds
TTITLE10=Swing 41
TTITLE11=Swing Dynamique
TTITLE12=Douce Ambiance
TTITLE13=Melodie Au Crepuscule
TTITLE14=Dance Nuptiale
TTITLE15=From You
TTITLE16=Rendez-Vous Sous la Pluie
TTITLE17=Hangin' Around Boudon
TTITLE18=Honeysuckle Rose
TTITLE19=Bill Coleman Blues
TTITLE20=Dinah
TTITLE21=Lady Be Good
TTITLE22=I Saw Stars
TTITLE23=Swanee River
TTITLE24=Chasing Shadows
EXTD=YEAR: 2010
EXTT0=
EXTT1=
EXTT2=
EXTT3=
EXTT4=
EXTT5=
EXTT6=
EXTT7=
EXTT8=
EXTT9=
EXTT10=
EXTT11=
EXTT12=
EXTT13=
EXTT14=
EXTT15=
EXTT16=
EXTT17=
EXTT18=
EXTT19=
EXTT20=
EXTT21=
EXTT22=
EXTT23=
EXTT24=
PLAYORDER=
